<?xml version="1.0" encoding="UTF-8"?>
<!DOCTYPE svg PUBLIC "-//W3C//DTD SVG 1.1//EN" "http://www.w3.org/Graphics/SVG/1.1/DTD/svg11.dtd">
<!-- Creator: CorelDRAW X7 -->
<svg xmlns="http://www.w3.org/2000/svg" xml:space="preserve" width="3.59999in" height="3.59999in" version="1.1" style="shape-rendering:geometricPrecision; text-rendering:geometricPrecision; image-rendering:optimizeQuality; fill-rule:evenodd; clip-rule:evenodd"
viewBox="0 0 3600 3600"
 xmlns:xlink="http://www.w3.org/1999/xlink"
 xmlns:svg="http://www.w3.org/2000/svg">
 <defs>
  <style type="text/css">
   <![CDATA[
    .fil0 {fill:none}
    .fil1 {fill:#E17352}
   ]]>
  </style>
 </defs>
 <g id="Layer_x0020_1">
  <metadata id="CorelCorpID_0Corel-Layer"/>
  <rect class="fil0" width="3600" height="3600"/>
  <g id="_2313669156944">
   <path class="fil1" d="M1341 1938l98 0 0 -38c12,14 54,37 83,43 203,43 296,-238 112,-327 -31,-15 -67,-21 -106,-14 -51,10 -65,31 -89,44l0 -198 -98 -1 0 491zm189 -251c-119,36 -64,201 40,173 38,-11 74,-54 61,-107 -11,-41 -49,-81 -101,-66z"/>
   <path class="fil1" d="M2065 1909l0 29 81 0 0 -326 -74 0 -7 29c-21,-9 -36,-30 -86,-37 -201,-28 -278,239 -106,325 28,14 65,23 101,17 50,-7 57,-20 91,-37zm-119 -221c-108,24 -77,193 33,174 45,-7 78,-53 69,-104 -7,-43 -50,-82 -102,-70z"/>
   <path class="fil1" d="M997 1909l1 29 80 1 1 -327 -71 0c-6,9 -7,16 -10,29 -18,-7 -38,-31 -87,-37 -110,-15 -204,73 -203,171 2,119 127,210 249,158 16,-7 26,-18 40,-24zm-120 -220c-113,32 -68,198 40,172 40,-9 74,-53 64,-105 -9,-43 -51,-81 -104,-67z"/>
   <path class="fil1" d="M2688 1604c-90,15 -167,93 -150,200 15,88 103,158 210,141 88,-14 167,-91 149,-199 -15,-87 -103,-159 -209,-142zm8 85c-41,11 -74,54 -60,110 9,39 52,77 106,62 105,-30 64,-203 -46,-172z"/>
   <polygon class="fil1" points="2207,1700 2301,1700 2301,1938 2397,1939 2397,1700 2498,1700 2499,1611 2208,1610 "/>
   <polygon class="fil1" points="1160,1939 1256,1939 1256,1447 1160,1447 "/>
   <polygon class="fil1" points="2207,1535 2206,1539 2499,1538 2498,1448 2207,1447 "/>
  </g>
 </g>
</svg>
